<svg version="1.1" xmlns="http://www.w3.org/2000/svg" width="32" height="32">
<path d="M0 0 C10.56 0 21.12 0 32 0 C32 10.56 32 21.12 32 32 C21.44 32 10.88 32 0 32 C0 21.44 0 10.88 0 0 Z " fill="#556C91" transform="translate(0,0)"/>
<path d="M0 0 C4.62 0 9.24 0 14 0 C12.02 0.99 12.02 0.99 10 2 C4.81837967 4.993218 4.81837967 4.993218 2 10 C1.61709538 11.99110401 1.27395385 13.99100513 1 16 C2.65 16 4.3 16 6 16 C8.125 22.75 8.125 22.75 7 25 C7.66 25.33 8.32 25.66 9 26 C9 26.66 9 27.32 9 28 C9.66 28 10.32 28 11 28 C11 27.01 11 26.02 11 25 C11.66 25 12.32 25 13 25 C13.33 25.66 13.66 26.32 14 27 C15.32 26.67 16.64 26.34 18 26 C18 25.34 18 24.68 18 24 C18.61875 23.835 19.2375 23.67 19.875 23.5 C23.27756949 21.09818625 23.22612026 17.99837866 24 14 C24.33 14.66 24.66 15.32 25 16 C26.98 16 28.96 16 31 16 C29.53014856 8.92341444 29.53014856 8.92341444 25.0625 3.5 C24.051875 3.005 23.04125 2.51 22 2 C20.68 1.34 19.36 0.68 18 0 C22.62 0 27.24 0 32 0 C32 10.56 32 21.12 32 32 C21.44 32 10.88 32 0 32 C0 21.44 0 10.88 0 0 Z " fill="#4E929E" transform="translate(0,0)"/>
<path d="M0 0 C2.65054461 2.14567897 4.34654521 3.75111458 5.0390625 7.16796875 C5.234375 9.15364583 5.4296875 11.13932292 5.625 13.125 C3.645 13.125 1.665 13.125 -0.375 13.125 C-0.7875 12.17625 -1.2 11.2275 -1.625 10.25 C-3.09568391 7.15953391 -3.09568391 7.15953391 -5.1875 5.6875 C-8.23725778 4.90327657 -10.35618023 5.2900073 -13.375 6.125 C-15.92093619 8.03445214 -17.0846828 10.24660009 -18.375 13.125 C-20.355 13.125 -22.335 13.125 -24.375 13.125 C-24.87964541 7.82622324 -23.74021927 5.21783425 -20.375 1.125 C-13.76634922 -3.66627181 -7.14231467 -3.9679526 0 0 Z " fill="#3E4662" transform="translate(25.375,2.875)"/>
<path d="M0 0 C4.62 0 9.24 0 14 0 C12.02 0.99 12.02 0.99 10 2 C4.81837967 4.993218 4.81837967 4.993218 2 10 C1.61709538 11.99110401 1.27395385 13.99100513 1 16 C2.65 16 4.3 16 6 16 C8.125 22.75 8.125 22.75 7 25 C7.66 25.33 8.32 25.66 9 26 C9 26.66 9 27.32 9 28 C9.66 28 10.32 28 11 28 C11 27.01 11 26.02 11 25 C11.66 25 12.32 25 13 25 C14.125 29.75 14.125 29.75 13 32 C8.71 32 4.42 32 0 32 C0 21.44 0 10.88 0 0 Z " fill="#6C6DAF" transform="translate(0,0)"/>
<path d="M0 0 C0.639375 0.165 1.27875 0.33 1.9375 0.5 C3.80826821 1.03926667 3.80826821 1.03926667 5 1 C7.89392 1.30462316 9.55413841 1.60190929 11.75 3.5625 C13.52724802 7.02813365 13.67708592 10.125031 14 14 C12.02 14 10.04 14 8 14 C7.61908203 13.16855469 7.61908203 13.16855469 7.23046875 12.3203125 C6.88628906 11.59585937 6.54210937 10.87140625 6.1875 10.125 C5.85105469 9.40570313 5.51460937 8.68640625 5.16796875 7.9453125 C4.00532903 5.69457194 4.00532903 5.69457194 1 4 C0.3125 1.875 0.3125 1.875 0 0 Z " fill="#364759" transform="translate(17,2)"/>
<path d="M0 0 C1.98 0 3.96 0 6 0 C8 2 8 2 8.23046875 4.12890625 C8.20919922 5.33353516 8.20919922 5.33353516 8.1875 6.5625 C8.17783203 7.77099609 8.17783203 7.77099609 8.16796875 9.00390625 C8 11 8 11 7 12 C4.66702567 12.04092937 2.33294775 12.04241723 0 12 C0 8.04 0 4.08 0 0 Z " fill="#424E69" transform="translate(12,10)"/>
<path d="M0 0 C5.75 0.75 5.75 0.75 8 3 C8.70320889 7.23560704 8.73891641 10.86320552 6.375 14.5 C3.50769051 16.31093231 1.38071398 16.85301244 -2 17 C-2.66 16.34 -3.32 15.68 -4 15 C-1.69 14.34 0.62 13.68 3 13 C3.08096803 11.54257537 3.13917774 10.08387193 3.1875 8.625 C3.23970703 7.40683594 3.23970703 7.40683594 3.29296875 6.1640625 C3.19628906 5.44992188 3.09960938 4.73578125 3 4 C2.01 3.34 1.02 2.68 0 2 C0 1.34 0 0.68 0 0 Z " fill="#4B979E" transform="translate(16,8)"/>
<path d="M0 0 C4.62 0 9.24 0 14 0 C12.02 0.99 12.02 0.99 10 2 C5.83678422 4.20905327 3.75539079 5.87653466 2.125 10.25 C1.75375 11.4875 1.3825 12.725 1 14 C0.67 14 0.34 14 0 14 C0 9.38 0 4.76 0 0 Z " fill="#FFFFFF" transform="translate(0,0)"/>
<path d="M0 0 C4.62 0 9.24 0 14 0 C14 4.29 14 8.58 14 13 C12 10 12 10 10.375 7 C7.23551902 3.03433981 4.78334987 2.43500496 0 1 C0 0.67 0 0.34 0 0 Z " fill="#FFFFFF" transform="translate(18,0)"/>
<path d="M0 0 C0.33 0 0.66 0 1 0 C1 4.29 1 8.58 1 13 C-3.29 13 -7.58 13 -12 13 C-9 11 -9 11 -6 9.3125 C-2.25545201 6.42607759 -1.52101385 4.39404 0 0 Z " fill="#FFFFFF" transform="translate(31,19)"/>
<path d="M0 0 C2 3 2 3 3.6875 6 C6.57392241 9.74454799 8.60596 10.47898615 13 12 C13 12.33 13 12.66 13 13 C8.71 13 4.42 13 0 13 C0 8.71 0 4.42 0 0 Z " fill="#FFFFFF" transform="translate(0,19)"/>
<path d="M0 0 C2.50319571 3.75479357 2.13370058 5.40185594 1.55078125 9.70703125 C0.71514206 13.18589796 -0.7285274 15.24669988 -3 18 C-3.66 18.33 -4.32 18.66 -5 19 C-5 17.35 -5 15.7 -5 14 C-4.01 14 -3.02 14 -2 14 C-2.515625 13.608125 -3.03125 13.21625 -3.5625 12.8125 C-4.036875 12.214375 -4.51125 11.61625 -5 11 C-4.6875 8.3125 -4.6875 8.3125 -4 6 C-2.35 6 -0.7 6 1 6 C0.67 4.02 0.34 2.04 0 0 Z " fill="#37AA8F" transform="translate(30,10)"/>
<path d="M0 0 C-0.66 0 -1.32 0 -2 0 C-2 0.66 -2 1.32 -2 2 C-3.65 2 -5.3 2 -7 2 C-7 5.96 -7 9.92 -7 14 C-7.66 14 -8.32 14 -9 14 C-10.59616743 10.80766515 -10.51466114 7.46538503 -10 4 C-6.91980411 -0.00425466 -4.84969005 -1.45490702 0 0 Z " fill="#647BAE" transform="translate(18,8)"/>
<path d="M0 0 C1.0625 1.8125 1.0625 1.8125 2 4 C1.67 4.99 1.34 5.98 1 7 C1.99 7.33 2.98 7.66 4 8 C4 8.66 4 9.32 4 10 C3.01 10 2.02 10 1 10 C1 10.99 1 11.98 1 13 C0.34 12.67 -0.32 12.34 -1 12 C-1.66 12 -2.32 12 -3 12 C-3.33 12.66 -3.66 13.32 -4 14 C-4.66 13.67 -5.32 13.34 -6 13 C-6 12.01 -6 11.02 -6 10 C-5.38125 9.835 -4.7625 9.67 -4.125 9.5 C-0.72243051 7.09818625 -0.77387974 3.99837866 0 0 Z " fill="#408686" transform="translate(24,14)"/>
<path d="M0 0 C0.8971875 0.99 0.8971875 0.99 1.8125 2 C3.87501834 4.3373846 3.87501834 4.3373846 7 4 C6.34 5.32 5.68 6.64 5 8 C3.02 8 1.04 8 -1 8 C-1.125 2.25 -1.125 2.25 0 0 Z " fill="#493E69" transform="translate(2,8)"/>
<path d="M0 0 C0.33 0 0.66 0 1 0 C3.11161731 9.41002278 3.11161731 9.41002278 4 14 C3.34 14 2.68 14 2 14 C2 13.34 2 12.68 2 12 C1.01 11.67 0.02 11.34 -1 11 C-0.814375 10.443125 -0.62875 9.88625 -0.4375 9.3125 C0.07533672 6.60179165 -0.43659697 4.67616438 -1 2 C-0.67 1.34 -0.34 0.68 0 0 Z " fill="#5E6398" transform="translate(7,14)"/>
<path d="M0 0 C0.66 0.33 1.32 0.66 2 1 C2.625 4.0625 2.625 4.0625 3 7 C1.35 7 -0.3 7 -2 7 C-2 6.01 -2 5.02 -2 4 C-2.33 3.34 -2.66 2.68 -3 2 C-2.01 1.34 -1.02 0.68 0 0 Z " fill="#35344B" transform="translate(28,9)"/>
<path d="M0 0 C2.97 0.495 2.97 0.495 6 1 C5.67 1.99 5.34 2.98 5 4 C4.34 4 3.68 4 3 4 C2.67 4.66 2.34 5.32 2 6 C1.01 5.34 0.02 4.68 -1 4 C-0.67 2.68 -0.34 1.36 0 0 Z " fill="#3C3454" transform="translate(4,7)"/>
<path d="M0 0 C2.66666667 0.66666667 5.33333333 1.33333333 8 2 C6.68 3.32 5.36 4.64 4 6 C1 4 1 4 0.3125 1.875 C0.209375 1.25625 0.10625 0.6375 0 0 Z " fill="#332D47" transform="translate(17,2)"/>
<path d="M0 0 C1.65 0 3.3 0 5 0 C5 1.32 5 2.64 5 4 C3.35 4 1.7 4 0 4 C0 2.68 0 1.36 0 0 Z " fill="#54819D" transform="translate(13,17)"/>
<path d="M0 0 C2.99324263 1.0975223 3.84610901 1.67682892 5.25 4.625 C5.4975 5.40875 5.745 6.1925 6 7 C4.35 7.33 2.7 7.66 1 8 C1 7.01 1 6.02 1 5 C1.66 4.67 2.32 4.34 3 4 C2.01 2.68 1.02 1.36 0 0 Z " fill="#39686C" transform="translate(24,3)"/>
<path d="M0 0 C0.33 0.66 0.66 1.32 1 2 C2.65 2 4.3 2 6 2 C6 2.66 6 3.32 6 4 C4.35 4.66 2.7 5.32 1 6 C0 5 0 5 -0.0625 2.4375 C-0.041875 1.633125 -0.02125 0.82875 0 0 Z " fill="#7B63BA" transform="translate(0,14)"/>
<path d="M0 0 C0.66 0 1.32 0 2 0 C2.33 1.65 2.66 3.3 3 5 C1.02 5 -0.96 5 -3 5 C-1.125 1.125 -1.125 1.125 0 0 Z " fill="#504979" transform="translate(6,3)"/>
</svg>
